<?xml version="1.0" encoding="utf-8"?>
<!-- Generator: Adobe Illustrator 24.3.0, SVG Export Plug-In . SVG Version: 6.00 Build 0)  -->
<svg version="1.1" id="Слой_1" xmlns="http://www.w3.org/2000/svg" xmlns:xlink="http://www.w3.org/1999/xlink" x="0px" y="0px"
	 viewBox="0 0 400 400" fill="white" style="enable-background:new 0 0 400 400;" xml:space="preserve">
<g>
	<path d="M270.6,113.5c0-0.1,0-0.2,0-0.3h0c-0.4-0.1-0.7-0.2-1-0.2h-1.2C269.1,113.2,269.8,113.4,270.6,113.5c0,0,0,0.1,0,0.1
		C270.6,113.6,270.6,113.6,270.6,113.5z"/>
	<path d="M216.5,144.7c-11.2-3.7-22.8-2.2-34.4-2.6v43.3c9,0,17.8,0,26.5,0c6.7,0,12.1-2.6,16.5-7.5
		C235.6,166.3,231.3,149.6,216.5,144.7z M233.4,214.3c-4.4-2.3-9.3-4.5-14.2-4.8c-12.2-0.9-24.4-0.7-36.6-0.9
		c-0.2,0-0.4,0.3-0.6,0.5v46.6c5.6,0,10.8,0.2,15.9-0.1c7.8-0.3,15.7-0.2,23.3-1.7c10.8-2,18-8.6,20.2-19.9
		C243.2,225,240.8,218.3,233.4,214.3z M233.4,214.3c-4.4-2.3-9.3-4.5-14.2-4.8c-12.2-0.9-24.4-0.7-36.6-0.9c-0.2,0-0.4,0.3-0.6,0.5
		v46.6c5.6,0,10.8,0.2,15.9-0.1c7.8-0.3,15.7-0.2,23.3-1.7c10.8-2,18-8.6,20.2-19.9C243.2,225,240.8,218.3,233.4,214.3z
		 M216.5,144.7c-11.2-3.7-22.8-2.2-34.4-2.6v43.3c9,0,17.8,0,26.5,0c6.7,0,12.1-2.6,16.5-7.5C235.6,166.3,231.3,149.6,216.5,144.7z
		 M216.5,144.7c-11.2-3.7-22.8-2.2-34.4-2.6v43.3c9,0,17.8,0,26.5,0c6.7,0,12.1-2.6,16.5-7.5C235.6,166.3,231.3,149.6,216.5,144.7z
		 M233.4,214.3c-4.4-2.3-9.3-4.5-14.2-4.8c-12.2-0.9-24.4-0.7-36.6-0.9c-0.2,0-0.4,0.3-0.6,0.5v46.6c5.6,0,10.8,0.2,15.9-0.1
		c7.8-0.3,15.7-0.2,23.3-1.7c10.8-2,18-8.6,20.2-19.9C243.2,225,240.8,218.3,233.4,214.3z M233.4,214.3c-4.4-2.3-9.3-4.5-14.2-4.8
		c-12.2-0.9-24.4-0.7-36.6-0.9c-0.2,0-0.4,0.3-0.6,0.5v46.6c5.6,0,10.8,0.2,15.9-0.1c7.8-0.3,15.7-0.2,23.3-1.7
		c10.8-2,18-8.6,20.2-19.9C243.2,225,240.8,218.3,233.4,214.3z M216.5,144.7c-11.2-3.7-22.8-2.2-34.4-2.6v43.3c9,0,17.8,0,26.5,0
		c6.7,0,12.1-2.6,16.5-7.5C235.6,166.3,231.3,149.6,216.5,144.7z M216.5,144.7c-11.2-3.7-22.8-2.2-34.4-2.6v43.3c9,0,17.8,0,26.5,0
		c6.7,0,12.1-2.6,16.5-7.5C235.6,166.3,231.3,149.6,216.5,144.7z M233.4,214.3c-4.4-2.3-9.3-4.5-14.2-4.8
		c-12.2-0.9-24.4-0.7-36.6-0.9c-0.2,0-0.4,0.3-0.6,0.5v46.6c5.6,0,10.8,0.2,15.9-0.1c7.8-0.3,15.7-0.2,23.3-1.7
		c10.8-2,18-8.6,20.2-19.9C243.2,225,240.8,218.3,233.4,214.3z M233.4,214.3c-4.4-2.3-9.3-4.5-14.2-4.8c-12.2-0.9-24.4-0.7-36.6-0.9
		c-0.2,0-0.4,0.3-0.6,0.5v46.6c5.6,0,10.8,0.2,15.9-0.1c7.8-0.3,15.7-0.2,23.3-1.7c10.8-2,18-8.6,20.2-19.9
		C243.2,225,240.8,218.3,233.4,214.3z M216.5,144.7c-11.2-3.7-22.8-2.2-34.4-2.6v43.3c9,0,17.8,0,26.5,0c6.7,0,12.1-2.6,16.5-7.5
		C235.6,166.3,231.3,149.6,216.5,144.7z M216.5,144.7c-11.2-3.7-22.8-2.2-34.4-2.6v43.3c9,0,17.8,0,26.5,0c6.7,0,12.1-2.6,16.5-7.5
		C235.6,166.3,231.3,149.6,216.5,144.7z M233.4,214.3c-4.4-2.3-9.3-4.5-14.2-4.8c-12.2-0.9-24.4-0.7-36.6-0.9
		c-0.2,0-0.4,0.3-0.6,0.5v46.6c5.6,0,10.8,0.2,15.9-0.1c7.8-0.3,15.7-0.2,23.3-1.7c10.8-2,18-8.6,20.2-19.9
		C243.2,225,240.8,218.3,233.4,214.3z M233.4,214.3c-4.4-2.3-9.3-4.5-14.2-4.8c-12.2-0.9-24.4-0.7-36.6-0.9c-0.2,0-0.4,0.3-0.6,0.5
		v46.6c5.6,0,10.8,0.2,15.9-0.1c7.8-0.3,15.7-0.2,23.3-1.7c10.8-2,18-8.6,20.2-19.9C243.2,225,240.8,218.3,233.4,214.3z
		 M208.6,185.5c6.7,0,12.1-2.6,16.5-7.5c10.5-11.8,6.2-28.5-8.6-33.3c-11.2-3.7-22.8-2.2-34.4-2.6v43.3
		C191.1,185.5,199.8,185.5,208.6,185.5z M319.8,0H80.2C35.9,0,0,35.9,0,80.2v239.6C0,364.1,35.9,400,80.2,400h239.6
		c44.3,0,80.2-35.9,80.2-80.2V80.2C400,35.9,364.1,0,319.8,0z M284.7,232c-0.4,12.5-3.4,24.2-12.3,33.7c-8.5,9-19.6,13-31.5,14.7
		c-7,1-14,1.2-21.4,1.8v35.5h-21.9V282h-14.8v35.7h-22.5v-35.9h-42.8v-23.6c5.1,0,10.1,0,15.1,0c6.9-0.1,10.1-2.9,10.1-9.9
		c0.1-32.9,0.1-65.7,0-98.6c0-6.1-2.4-8.4-8.9-8.8c-6.1-0.3-12.2-0.1-18.5-0.1v-23h44.2V82.3h22.3v35.1h14.8V82.3H219v16
		c0,5.2,0.2,10.4-0.1,15.6c-0.1,3.1,0.7,4.3,4,4.7c12.1,1.3,23.6,4.6,34.2,11c21.3,12.7,20.5,41.4,5.1,56c-2.1,2-4.4,3.7-6.7,5.6
		c4,2,8.2,3.6,11.8,6.1C279.5,205.5,285.2,217.4,284.7,232z M233.4,214.3c-4.4-2.3-9.3-4.5-14.2-4.8c-12.2-0.9-24.4-0.7-36.6-0.9
		c-0.2,0-0.4,0.3-0.6,0.5v46.6c5.6,0,10.8,0.2,15.9-0.1c7.8-0.3,15.7-0.2,23.3-1.7c10.8-2,18-8.6,20.2-19.9
		C243.2,225,240.8,218.3,233.4,214.3z M208.6,185.5c6.7,0,12.1-2.6,16.5-7.5c10.5-11.8,6.2-28.5-8.6-33.3
		c-11.2-3.7-22.8-2.2-34.4-2.6v43.3C191.1,185.5,199.8,185.5,208.6,185.5z M216.5,144.7c-11.2-3.7-22.8-2.2-34.4-2.6v43.3
		c9,0,17.8,0,26.5,0c6.7,0,12.1-2.6,16.5-7.5C235.6,166.3,231.3,149.6,216.5,144.7z M233.4,214.3c-4.4-2.3-9.3-4.5-14.2-4.8
		c-12.2-0.9-24.4-0.7-36.6-0.9c-0.2,0-0.4,0.3-0.6,0.5v46.6c5.6,0,10.8,0.2,15.9-0.1c7.8-0.3,15.7-0.2,23.3-1.7
		c10.8-2,18-8.6,20.2-19.9C243.2,225,240.8,218.3,233.4,214.3z M233.4,214.3c-4.4-2.3-9.3-4.5-14.2-4.8c-12.2-0.9-24.4-0.7-36.6-0.9
		c-0.2,0-0.4,0.3-0.6,0.5v46.6c5.6,0,10.8,0.2,15.9-0.1c7.8-0.3,15.7-0.2,23.3-1.7c10.8-2,18-8.6,20.2-19.9
		C243.2,225,240.8,218.3,233.4,214.3z M216.5,144.7c-11.2-3.7-22.8-2.2-34.4-2.6v43.3c9,0,17.8,0,26.5,0c6.7,0,12.1-2.6,16.5-7.5
		C235.6,166.3,231.3,149.6,216.5,144.7z M216.5,144.7c-11.2-3.7-22.8-2.2-34.4-2.6v43.3c9,0,17.8,0,26.5,0c6.7,0,12.1-2.6,16.5-7.5
		C235.6,166.3,231.3,149.6,216.5,144.7z M233.4,214.3c-4.4-2.3-9.3-4.5-14.2-4.8c-12.2-0.9-24.4-0.7-36.6-0.9
		c-0.2,0-0.4,0.3-0.6,0.5v46.6c5.6,0,10.8,0.2,15.9-0.1c7.8-0.3,15.7-0.2,23.3-1.7c10.8-2,18-8.6,20.2-19.9
		C243.2,225,240.8,218.3,233.4,214.3z M233.4,214.3c-4.4-2.3-9.3-4.5-14.2-4.8c-12.2-0.9-24.4-0.7-36.6-0.9c-0.2,0-0.4,0.3-0.6,0.5
		v46.6c5.6,0,10.8,0.2,15.9-0.1c7.8-0.3,15.7-0.2,23.3-1.7c10.8-2,18-8.6,20.2-19.9C243.2,225,240.8,218.3,233.4,214.3z
		 M216.5,144.7c-11.2-3.7-22.8-2.2-34.4-2.6v43.3c9,0,17.8,0,26.5,0c6.7,0,12.1-2.6,16.5-7.5C235.6,166.3,231.3,149.6,216.5,144.7z
		 M216.5,144.7c-11.2-3.7-22.8-2.2-34.4-2.6v43.3c9,0,17.8,0,26.5,0c6.7,0,12.1-2.6,16.5-7.5C235.6,166.3,231.3,149.6,216.5,144.7z
		 M233.4,214.3c-4.4-2.3-9.3-4.5-14.2-4.8c-12.2-0.9-24.4-0.7-36.6-0.9c-0.2,0-0.4,0.3-0.6,0.5v46.6c5.6,0,10.8,0.2,15.9-0.1
		c7.8-0.3,15.7-0.2,23.3-1.7c10.8-2,18-8.6,20.2-19.9C243.2,225,240.8,218.3,233.4,214.3z M233.4,214.3c-4.4-2.3-9.3-4.5-14.2-4.8
		c-12.2-0.9-24.4-0.7-36.6-0.9c-0.2,0-0.4,0.3-0.6,0.5v46.6c5.6,0,10.8,0.2,15.9-0.1c7.8-0.3,15.7-0.2,23.3-1.7
		c10.8-2,18-8.6,20.2-19.9C243.2,225,240.8,218.3,233.4,214.3z M216.5,144.7c-11.2-3.7-22.8-2.2-34.4-2.6v43.3c9,0,17.8,0,26.5,0
		c6.7,0,12.1-2.6,16.5-7.5C235.6,166.3,231.3,149.6,216.5,144.7z"/>
</g>
</svg>
