<?xml version="1.0" encoding="utf-8"?>
<!-- Generator: Adobe Illustrator 24.3.0, SVG Export Plug-In . SVG Version: 6.00 Build 0)  -->
<svg version="1.1" id="Слой_1" xmlns="http://www.w3.org/2000/svg" xmlns:xlink="http://www.w3.org/1999/xlink" x="0px" y="0px"
	 viewBox="0 0 400 400" fill="white" style="enable-background:new 0 0 400 400;" xml:space="preserve">
<g>
	<path d="M163.3,205C163.3,205,163.3,205.1,163.3,205l0.2,0.1V205H163.3z M163.3,205C163.3,205,163.3,205.1,163.3,205l0.2,0.1V205
		H163.3z M163.3,205C163.3,205,163.3,205.1,163.3,205l0.2,0.1V205H163.3z M163.3,205C163.3,205,163.3,205.1,163.3,205l0.2,0.1V205
		H163.3z M163.3,205C163.3,205,163.3,205.1,163.3,205l0.2,0.1V205H163.3z"/>
	<path d="M191.8,190c-2.8-5.6-7.7-8.1-13.9-7.9c-6,0.2-10.5,3.1-13,8.6c-2.2,4.7-2.8,9.6-1.6,14.3c0,0,0,0.1,0,0.1
		c0.4,1.6,1,3.2,1.8,4.8c4.8,9.5,18.1,11.2,24.6,3c2.7-3.4,3.8-8.2,5.4-11.9C193.8,196.6,193.3,193,191.8,190z M191.8,190
		c-2.8-5.6-7.7-8.1-13.9-7.9c-6,0.2-10.5,3.1-13,8.6c-2.2,4.7-2.8,9.6-1.6,14.3c0,0,0,0.1,0,0.1c0.4,1.6,1,3.2,1.8,4.8
		c4.8,9.5,18.1,11.2,24.6,3c2.7-3.4,3.8-8.2,5.4-11.9C193.8,196.6,193.3,193,191.8,190z M191.8,190c-2.8-5.6-7.7-8.1-13.9-7.9
		c-6,0.2-10.5,3.1-13,8.6c-2.2,4.7-2.8,9.6-1.6,14.3c0,0,0,0.1,0,0.1c0.4,1.6,1,3.2,1.8,4.8c4.8,9.5,18.1,11.2,24.6,3
		c2.7-3.4,3.8-8.2,5.4-11.9C193.8,196.6,193.3,193,191.8,190z M191.8,190c-2.8-5.6-7.7-8.1-13.9-7.9c-6,0.2-10.5,3.1-13,8.6
		c-2.2,4.7-2.8,9.6-1.6,14.3c0,0,0,0.1,0,0.1c0.4,1.6,1,3.2,1.8,4.8c4.8,9.5,18.1,11.2,24.6,3c2.7-3.4,3.8-8.2,5.4-11.9
		C193.8,196.6,193.3,193,191.8,190z M191.8,190c-2.8-5.6-7.7-8.1-13.9-7.9c-6,0.2-10.5,3.1-13,8.6c-2.2,4.7-2.8,9.6-1.6,14.3
		c0,0,0,0.1,0,0.1c0.4,1.6,1,3.2,1.8,4.8c4.8,9.5,18.1,11.2,24.6,3c2.7-3.4,3.8-8.2,5.4-11.9C193.8,196.6,193.3,193,191.8,190z
		 M327.7,182.1c-9.3-0.2-16,7.2-16,17.8c-0.1,10.7,6.3,18.1,15.7,18.2c9.3,0,15.9-7.5,15.9-18C343.3,189.8,336.8,182.3,327.7,182.1z
		 M327.7,182.1c-9.3-0.2-16,7.2-16,17.8c-0.1,10.7,6.3,18.1,15.7,18.2c9.3,0,15.9-7.5,15.9-18C343.3,189.8,336.8,182.3,327.7,182.1z
		 M191.8,190c-2.8-5.6-7.7-8.1-13.9-7.9c-6,0.2-10.5,3.1-13,8.6c-2.2,4.7-2.8,9.6-1.6,14.3c0,0,0,0.1,0,0.1c0.4,1.6,1,3.2,1.8,4.8
		c4.8,9.5,18.1,11.2,24.6,3c2.7-3.4,3.8-8.2,5.4-11.9C193.8,196.6,193.3,193,191.8,190z M191.8,190c-2.8-5.6-7.7-8.1-13.9-7.9
		c-6,0.2-10.5,3.1-13,8.6c-2.2,4.7-2.8,9.6-1.6,14.3c0,0,0,0.1,0,0.1c0.4,1.6,1,3.2,1.8,4.8c4.8,9.5,18.1,11.2,24.6,3
		c2.7-3.4,3.8-8.2,5.4-11.9C193.8,196.6,193.3,193,191.8,190z M327.7,182.1c-9.3-0.2-16,7.2-16,17.8c-0.1,10.7,6.3,18.1,15.7,18.2
		c9.3,0,15.9-7.5,15.9-18C343.3,189.8,336.8,182.3,327.7,182.1z M327.7,182.1c-9.3-0.2-16,7.2-16,17.8c-0.1,10.7,6.3,18.1,15.7,18.2
		c9.3,0,15.9-7.5,15.9-18C343.3,189.8,336.8,182.3,327.7,182.1z M191.8,190c-2.8-5.6-7.7-8.1-13.9-7.9c-6,0.2-10.5,3.1-13,8.6
		c-2.2,4.7-2.8,9.6-1.6,14.3c0,0,0,0.1,0,0.1c0.4,1.6,1,3.2,1.8,4.8c4.8,9.5,18.1,11.2,24.6,3c2.7-3.4,3.8-8.2,5.4-11.9
		C193.8,196.6,193.3,193,191.8,190z M191.8,190c-2.8-5.6-7.7-8.1-13.9-7.9c-6,0.2-10.5,3.1-13,8.6c-2.2,4.7-2.8,9.6-1.6,14.3
		c0,0,0,0.1,0,0.1c0.4,1.6,1,3.2,1.8,4.8c4.8,9.5,18.1,11.2,24.6,3c2.7-3.4,3.8-8.2,5.4-11.9C193.8,196.6,193.3,193,191.8,190z
		 M327.7,182.1c-9.3-0.2-16,7.2-16,17.8c-0.1,10.7,6.3,18.1,15.7,18.2c9.3,0,15.9-7.5,15.9-18C343.3,189.8,336.8,182.3,327.7,182.1z
		 M191.8,190c-2.8-5.6-7.7-8.1-13.9-7.9c-6,0.2-10.5,3.1-13,8.6c-2.2,4.7-2.8,9.6-1.6,14.3c0,0,0,0.1,0,0.1c0.4,1.6,1,3.2,1.8,4.8
		c4.8,9.5,18.1,11.2,24.6,3c2.7-3.4,3.8-8.2,5.4-11.9C193.8,196.6,193.3,193,191.8,190z M327.7,182.1c-9.3-0.2-16,7.2-16,17.8
		c-0.1,10.7,6.3,18.1,15.7,18.2c9.3,0,15.9-7.5,15.9-18C343.3,189.8,336.8,182.3,327.7,182.1z M327.7,182.1c-9.3-0.2-16,7.2-16,17.8
		c-0.1,10.7,6.3,18.1,15.7,18.2c9.3,0,15.9-7.5,15.9-18C343.3,189.8,336.8,182.3,327.7,182.1z M191.8,190c-2.8-5.6-7.7-8.1-13.9-7.9
		c-6,0.2-10.5,3.1-13,8.6c-2.2,4.7-2.8,9.6-1.6,14.3c0,0,0,0.1,0,0.1c0.4,1.6,1,3.2,1.8,4.8c4.8,9.5,18.1,11.2,24.6,3
		c2.7-3.4,3.8-8.2,5.4-11.9C193.8,196.6,193.3,193,191.8,190z M191.8,190c-2.8-5.6-7.7-8.1-13.9-7.9c-6,0.2-10.5,3.1-13,8.6
		c-2.2,4.7-2.8,9.6-1.6,14.3c0,0,0,0.1,0,0.1c0.4,1.6,1,3.2,1.8,4.8c4.8,9.5,18.1,11.2,24.6,3c2.7-3.4,3.8-8.2,5.4-11.9
		C193.8,196.6,193.3,193,191.8,190z M327.7,182.1c-9.3-0.2-16,7.2-16,17.8c-0.1,10.7,6.3,18.1,15.7,18.2c9.3,0,15.9-7.5,15.9-18
		C343.3,189.8,336.8,182.3,327.7,182.1z M327.7,182.1c-9.3-0.2-16,7.2-16,17.8c-0.1,10.7,6.3,18.1,15.7,18.2c9.3,0,15.9-7.5,15.9-18
		C343.3,189.8,336.8,182.3,327.7,182.1z M191.8,190c-2.8-5.6-7.7-8.1-13.9-7.9c-6,0.2-10.5,3.1-13,8.6c-2.2,4.7-2.8,9.6-1.6,14.3
		c0,0,0,0.1,0,0.1c0.4,1.6,1,3.2,1.8,4.8c4.8,9.5,18.1,11.2,24.6,3c2.7-3.4,3.8-8.2,5.4-11.9C193.8,196.6,193.3,193,191.8,190z
		 M191.8,190c-2.8-5.6-7.7-8.1-13.9-7.9c-6,0.2-10.5,3.1-13,8.6c-2.2,4.7-2.8,9.6-1.6,14.3c0,0,0,0.1,0,0.1c0.4,1.6,1,3.2,1.8,4.8
		c4.8,9.5,18.1,11.2,24.6,3c2.7-3.4,3.8-8.2,5.4-11.9C193.8,196.6,193.3,193,191.8,190z M327.7,182.1c-9.3-0.2-16,7.2-16,17.8
		c-0.1,10.7,6.3,18.1,15.7,18.2c9.3,0,15.9-7.5,15.9-18C343.3,189.8,336.8,182.3,327.7,182.1z M327.7,182.1c-9.3-0.2-16,7.2-16,17.8
		c-0.1,10.7,6.3,18.1,15.7,18.2c9.3,0,15.9-7.5,15.9-18C343.3,189.8,336.8,182.3,327.7,182.1z M191.8,190c-2.8-5.6-7.7-8.1-13.9-7.9
		c-6,0.2-10.5,3.1-13,8.6c-2.2,4.7-2.8,9.6-1.6,14.3c0,0,0,0.1,0,0.1c0.4,1.6,1,3.2,1.8,4.8c4.8,9.5,18.1,11.2,24.6,3
		c2.7-3.4,3.8-8.2,5.4-11.9C193.8,196.6,193.3,193,191.8,190z M191.8,190c-2.8-5.6-7.7-8.1-13.9-7.9c-6,0.2-10.5,3.1-13,8.6
		c-2.2,4.7-2.8,9.6-1.6,14.3c0,0,0,0.1,0,0.1c0.4,1.6,1,3.2,1.8,4.8c4.8,9.5,18.1,11.2,24.6,3c2.7-3.4,3.8-8.2,5.4-11.9
		C193.8,196.6,193.3,193,191.8,190z M191.8,190c-2.8-5.6-7.7-8.1-13.9-7.9c-6,0.2-10.5,3.1-13,8.6c-2.2,4.7-2.8,9.6-1.6,14.3
		c0,0,0,0.1,0,0.1c0.4,1.6,1,3.2,1.8,4.8c4.8,9.5,18.1,11.2,24.6,3c2.7-3.4,3.8-8.2,5.4-11.9C193.8,196.6,193.3,193,191.8,190z
		 M191.8,190c-2.8-5.6-7.7-8.1-13.9-7.9c-6,0.2-10.5,3.1-13,8.6c-2.2,4.7-2.8,9.6-1.6,14.3c0,0,0,0.1,0,0.1c0.4,1.6,1,3.2,1.8,4.8
		c4.8,9.5,18.1,11.2,24.6,3c2.7-3.4,3.8-8.2,5.4-11.9C193.8,196.6,193.3,193,191.8,190z M191.8,190c-2.8-5.6-7.7-8.1-13.9-7.9
		c-6,0.2-10.5,3.1-13,8.6c-2.2,4.7-2.8,9.6-1.6,14.3c0,0,0,0.1,0,0.1c0.4,1.6,1,3.2,1.8,4.8c4.8,9.5,18.1,11.2,24.6,3
		c2.7-3.4,3.8-8.2,5.4-11.9C193.8,196.6,193.3,193,191.8,190z"/>
	<path d="M319.8,0H80.2C35.9,0,0,35.9,0,80.2v239.6C0,364.1,35.9,400,80.2,400h239.6c44.3,0,80.2-35.9,80.2-80.2V80.2
		C400,35.9,364.1,0,319.8,0z M133.1,231.4c-5,0-9.5,0.3-13.9-0.2c-1.1-0.1-2.7-2.5-2.7-3.9c-0.2-11.1-0.1-22.3-0.2-33.4
		c0-4.8-0.1-9.5-5.9-11.3c-4.8-1.5-12.2,1-15,5.5c-0.9,1.4-1,3.4-1.1,5.2c-0.1,12.5,0,24.9,0,37.8H77.7c0-2.4,0-4.7,0-6.9
		c0-10.6,0.1-21.3-0.1-31.9c-0.1-7.1-3.4-10.3-9.5-10.1c-6.7,0.2-12.4,5.2-12.4,11c0,10.8,0,21.6,0,32.4v5.7H39.5v-61.9h15.9
		c0.2,2,0.4,4.1,0.6,6.3c17.2-13.5,32.2-8.9,37.5,2.3c5.1-5.8,11.3-9.6,19.1-10.5c12.1-1.3,20.3,5.3,20.5,17.4
		C133.4,199.9,133.1,215.2,133.1,231.4z M178.5,232.9c-19.3,0-33.1-13.7-33.1-32.8c0-18.9,14-32.9,33.2-32.9
		c19.2,0,33.2,13.9,33.2,32.9C211.7,219.1,197.8,232.8,178.5,232.9z M282.1,231.1h-16.5v-6.4c0-10.5,0.1-20.9-0.1-31.4
		c-0.1-8.1-4.4-11.8-12.4-11.2c-8.7,0.6-13,5.2-13,13.9c0,11.6,0,23.2,0,35.1h-16.1v-62h15.8c0.2,2,0.4,4.1,0.5,5.2
		c6-2.3,11.9-5.6,18.1-6.7c14.2-2.6,23.4,5.1,23.7,19.5C282.4,201.6,282.1,216.2,282.1,231.1z M327,232.9
		c-19.2-0.1-32.8-13.9-32.7-33.2c0.1-18.9,13.9-32.5,32.9-32.5c19.4,0,33.3,13.9,33.2,33.3C360.4,219.4,346.5,232.9,327,232.9z"/>
</g>
</svg>
