<?xml version="1.0" encoding="utf-8"?>
<!-- Generator: Adobe Illustrator 24.3.0, SVG Export Plug-In . SVG Version: 6.00 Build 0)  -->
<svg version="1.1" id="Слой_1" xmlns="http://www.w3.org/2000/svg" xmlns:xlink="http://www.w3.org/1999/xlink" x="0px" y="0px"
	 viewBox="0 0 400 400" fill="white" style="enable-background:new 0 0 400 400;" xml:space="preserve">
<style type="text/css">
	.st0{fill:#FFFFFF;}
</style>
<g>
	<path d="M193.9,204.3c0,0,0,0.1,0,0.1c-6.2,0.5-12.4,0.5-18.6,0.7c-3.9,0.2-7.9,0.1-11.8,0.1c0-0.1,0-0.1,0-0.2c4,0,8,0.1,12-0.1
		C181.6,204.8,187.8,204.8,193.9,204.3z"/>
	<path d="M251.3,174.3c-0.9,1.1-1.9,2.2-2.9,3.3c-0.4,0.5-0.8,0.9-1.3,1.3c-0.4,0.5-0.9,0.9-1.3,1.3s-0.9,0.9-1.4,1.3
		c-0.5,0.4-0.9,0.9-1.4,1.3c-11.9,11-26.1,18-42.1,20.6c-2.4,0.4-4.7,0.6-7.1,0.8c-6.1,0.5-12.3,0.5-18.4,0.7c-4,0.2-8,0.1-12,0.1
		c-1.4,0-2.7,0-4.1,0.1c-2.2,0.1-4.4,0.9-6.2,2.2c1.8-1.2,3.8-2,6-2.1c1.4,0,2.9-0.1,4.3-0.1c4,0,7.9,0,11.8-0.1
		c6.2-0.2,12.4-0.2,18.6-0.7c2.3-0.2,4.7-0.4,7-0.8c16-2.6,30.3-9.6,42.2-20.7c0.6-0.6,1.2-1.2,1.8-1.8c0.6-0.6,1.2-1.2,1.8-1.8
		c0.6-0.6,1.2-1.2,1.7-1.8l0.1-0.1c0.5-0.6,1.1-1.2,1.6-1.8c0.5-0.6,1.1-1.2,1.6-1.8c0.3-0.4,0.6-0.7,0.9-1.1
		c0.2-0.3,0.4-0.5,0.6-0.8c0.1-0.1,0.2-0.3,0.3-0.4c0.1-0.1,0.1-0.2,0.2-0.3C252.9,172.4,252.1,173.3,251.3,174.3z M258.6,164.3
		c0.1-0.2,0.2-0.3,0.3-0.5c0.1-0.1,0.2-0.3,0.2-0.4C259,163.7,258.8,164,258.6,164.3z M260.1,161.9c0,0.1-0.1,0.2-0.2,0.2
		c-0.1,0.2-0.2,0.3-0.3,0.5C259.8,162.4,260,162.1,260.1,161.9C260.1,161.9,260.1,161.9,260.1,161.9z M148.7,213.3
		c-0.1,0.7-0.2,1.2-0.3,1.5c0.5-2.7,2.1-5.2,4.2-7C150.8,209.3,149.4,211.2,148.7,213.3z M260.1,161.9c0,0.1-0.1,0.2-0.2,0.2
		c-0.1,0.2-0.2,0.3-0.3,0.5C259.8,162.4,260,162.1,260.1,161.9C260.1,161.9,260.1,161.9,260.1,161.9z M251.3,174.3
		c-0.9,1.1-1.9,2.2-2.9,3.3c-0.4,0.5-0.8,0.9-1.3,1.3c-0.4,0.5-0.9,0.9-1.3,1.3c-0.4,0.4-0.9,0.9-1.4,1.3c-0.5,0.4-0.9,0.9-1.4,1.3
		c-11.9,11-26.1,18-42.1,20.6c-2.4,0.4-4.7,0.6-7.1,0.8c-6.1,0.5-12.3,0.5-18.4,0.7c-4,0.2-8,0.1-12,0.1c-1.4,0-2.7,0-4.1,0.1
		c-2.2,0.1-4.4,0.9-6.2,2.2c1.8-1.2,3.8-2,6-2.1c1.4,0,2.9-0.1,4.3-0.1c4,0,7.9,0,11.8-0.1c6.2-0.2,12.4-0.2,18.6-0.7
		c2.3-0.2,4.7-0.4,7-0.8c16-2.6,30.3-9.6,42.2-20.7c0.6-0.6,1.2-1.2,1.8-1.8c0.6-0.6,1.2-1.2,1.8-1.8c0.6-0.6,1.2-1.2,1.7-1.8
		l0.1-0.1c0.5-0.6,1.1-1.2,1.6-1.8c0.5-0.6,1.1-1.2,1.6-1.8c0.3-0.4,0.6-0.7,0.9-1.1c0.2-0.3,0.4-0.5,0.6-0.8
		c0.1-0.1,0.2-0.3,0.3-0.4c0.1-0.1,0.1-0.2,0.2-0.3C252.9,172.4,252.1,173.3,251.3,174.3z M148.7,213.3c-0.1,0.7-0.2,1.2-0.3,1.5
		c0.5-2.7,2.1-5.2,4.2-7C150.8,209.3,149.4,211.2,148.7,213.3z M270.6,113.5c0-0.1,0-0.2,0-0.3h0c-0.4-0.1-0.7-0.2-1-0.2h-1.2
		C269.1,113.2,269.8,113.4,270.6,113.5c0,0,0,0.1,0,0.1C270.6,113.6,270.6,113.6,270.6,113.5z M260,162.1c-0.1,0.2-0.2,0.3-0.3,0.5
		c0.1-0.2,0.3-0.5,0.4-0.7c0,0,0,0,0,0C260.1,162,260,162,260,162.1z M259,163.8c0.1-0.1,0.2-0.3,0.2-0.4c-0.2,0.3-0.4,0.6-0.6,0.9
		C258.8,164.2,258.9,164,259,163.8z M248.4,177.6c-0.4,0.5-0.8,0.9-1.3,1.3c-0.4,0.5-0.9,0.9-1.3,1.3s-0.9,0.9-1.4,1.3
		c-0.5,0.4-0.9,0.9-1.4,1.3c-11.9,11-26.1,18-42.1,20.6c-2.4,0.4-4.7,0.6-7.1,0.8c-6.1,0.5-12.3,0.5-18.4,0.7c-4,0.2-8,0.1-12,0.1
		c-1.4,0-2.7,0-4.1,0.1c-2.2,0.1-4.4,0.9-6.2,2.2c1.8-1.2,3.8-2,6-2.1c1.4,0,2.9-0.1,4.3-0.1c4,0,7.9,0,11.8-0.1
		c6.2-0.2,12.4-0.2,18.6-0.7c2.3-0.2,4.7-0.4,7-0.8c16-2.6,30.3-9.6,42.2-20.7c0.6-0.6,1.2-1.2,1.8-1.8c0.6-0.6,1.2-1.2,1.8-1.8
		c0.6-0.6,1.2-1.2,1.7-1.8L248.4,177.6c0.5-0.5,1.1-1.1,1.6-1.7c0.5-0.6,1.1-1.2,1.6-1.8c0.3-0.4,0.6-0.7,0.9-1.1
		c0.2-0.3,0.4-0.5,0.6-0.8c0.1-0.1,0.2-0.3,0.3-0.4c0.1-0.1,0.1-0.2,0.2-0.3c-0.8,1-1.5,1.9-2.3,2.9
		C250.4,175.4,249.4,176.5,248.4,177.6z M148.7,213.3c-0.1,0.7-0.2,1.2-0.3,1.5c0.5-2.7,2.1-5.2,4.2-7
		C150.8,209.3,149.4,211.2,148.7,213.3z M148.7,213.3c-0.1,0.7-0.2,1.2-0.3,1.5c0.5-2.7,2.1-5.2,4.2-7
		C150.8,209.3,149.4,211.2,148.7,213.3z M251.3,174.3c-0.9,1.1-1.9,2.2-2.9,3.3c-0.4,0.5-0.8,0.9-1.3,1.3c-0.4,0.5-0.9,0.9-1.3,1.3
		c-0.4,0.4-0.9,0.9-1.4,1.3c-0.5,0.4-0.9,0.9-1.4,1.3c-11.9,11-26.1,18-42.1,20.6c-2.4,0.4-4.7,0.6-7.1,0.8
		c-6.1,0.5-12.3,0.5-18.4,0.7c-4,0.2-8,0.1-12,0.1c-1.4,0-2.7,0-4.1,0.1c-2.2,0.1-4.4,0.9-6.2,2.2c1.8-1.2,3.8-2,6-2.1
		c1.4,0,2.9-0.1,4.3-0.1c4,0,7.9,0,11.8-0.1c6.2-0.2,12.4-0.2,18.6-0.7c2.3-0.2,4.7-0.4,7-0.8c16-2.6,30.3-9.6,42.2-20.7
		c0.6-0.6,1.2-1.2,1.8-1.8c0.6-0.6,1.2-1.2,1.8-1.8c0.6-0.6,1.2-1.2,1.7-1.8l0.1-0.1c0.5-0.6,1.1-1.2,1.6-1.8
		c0.5-0.6,1.1-1.2,1.6-1.8c0.3-0.4,0.6-0.7,0.9-1.1C252.1,173.3,251.7,173.8,251.3,174.3z M252.5,172.9c0.2-0.3,0.4-0.5,0.6-0.8
		c0.1-0.1,0.2-0.3,0.3-0.4c0.1-0.1,0.1-0.2,0.2-0.3C253.3,171.9,252.9,172.4,252.5,172.9z M260.1,161.9c0,0.1-0.1,0.2-0.2,0.2
		c-0.1,0.2-0.2,0.3-0.3,0.5C259.8,162.4,260,162.1,260.1,161.9C260.1,161.9,260.1,161.9,260.1,161.9z M148.7,213.3
		c-0.1,0.7-0.2,1.2-0.3,1.5c0.5-2.7,2.1-5.2,4.2-7C150.8,209.3,149.4,211.2,148.7,213.3z M251.3,174.3c-0.9,1.1-1.9,2.2-2.9,3.3
		c-0.4,0.5-0.8,0.9-1.3,1.3c-0.4,0.5-0.9,0.9-1.3,1.3c-0.4,0.4-0.9,0.9-1.4,1.3c-0.5,0.4-0.9,0.9-1.4,1.3
		c-11.9,11-26.1,18-42.1,20.6c-2.4,0.4-4.7,0.6-7.1,0.8c-6.1,0.5-12.3,0.5-18.4,0.7c-4,0.2-8,0.1-12,0.1c-1.4,0-2.7,0-4.1,0.1
		c-2.2,0.1-4.4,0.9-6.2,2.2c1.8-1.2,3.8-2,6-2.1c1.4,0,2.9-0.1,4.3-0.1c4,0,7.9,0,11.8-0.1c6.2-0.2,12.4-0.2,18.6-0.7
		c2.3-0.2,4.7-0.4,7-0.8c16-2.6,30.3-9.6,42.2-20.7c0.6-0.6,1.2-1.2,1.8-1.8c0.6-0.6,1.2-1.2,1.8-1.8c0.6-0.6,1.2-1.2,1.7-1.8
		l0.1-0.1c0.5-0.6,1.1-1.2,1.6-1.8c0.5-0.6,1.1-1.2,1.6-1.8c0.3-0.4,0.6-0.7,0.9-1.1c0.2-0.3,0.4-0.5,0.6-0.8
		c0.1-0.1,0.2-0.3,0.3-0.4c0.1-0.1,0.1-0.2,0.2-0.3C252.9,172.4,252.1,173.3,251.3,174.3z M260.1,161.9c0,0.1-0.1,0.2-0.2,0.2
		c-0.1,0.2-0.2,0.3-0.3,0.5C259.8,162.4,260,162.1,260.1,161.9C260.1,161.9,260.1,161.9,260.1,161.9z"/>
	<path d="M319.8,0H80.2C35.9,0,0,35.9,0,80.2v239.6C0,364.1,35.9,400,80.2,400h239.6c44.3,0,80.2-35.9,80.2-80.2V80.2
		C400,35.9,364.1,0,319.8,0z M316.9,186.3c-1.2,5.4-2.8,10.6-5,15.6c-4.7,10.6-11.7,20.2-21,28.8c-11.9,11.1-26.1,18.1-42.2,20.7
		c-8.4,1.4-17,1.2-25.5,1.5c-5.4,0.2-10.8,0-16.2,0.2c-5.3,0.2-10.1,4.6-11,9.8c-3.4,20.4-6.9,40.8-10.3,61.2
		c-1,6.2-5.9,10.5-12.2,10.6c-10.9,0.1-21.7,0.1-32.5,0c-7.7-0.1-12.9-5.9-11.8-13.5c2.1-13.2,4.3-26.4,6.6-39.5
		c-2.2,3.2-5.8,5.2-10,5.2c-10.8,0.1-21.7,0.1-32.5,0c-7.7-0.1-12.9-5.9-11.8-13.5c2.4-15.5,5.1-30.9,7.7-46.3
		c4-23.8,8-47.5,12-71.3c4-23.8,8-47.5,12-71.3c0.5-3,1-6.1,1.6-9.1c0.9-5,3.7-8.2,8.6-9.7c0.3-0.1,0.5-0.3,0.8-0.5h96.4
		c5.1,1.2,10.3,1.9,15.1,3.6c19.1,6.8,32.6,24.5,34.9,44.4h0c0,0.1,0,0.2,0,0.3c4.3,0.9,8.7,1.6,12.9,3.1
		c20.5,7.3,34.6,27.2,35.2,48.9C318.9,172.8,318.3,179.8,316.9,186.3z"/>
</g>
<g>
	<g>
		<path class="st0" d="M254.8,169.8c0.5-0.6,0.9-1.2,1.4-1.9c-0.9,1.3-1.8,2.5-2.7,3.7c-0.1,0.1-0.2,0.3-0.3,0.4
			c-0.5,0.6-1,1.3-1.5,1.9c-0.5,0.6-1,1.2-1.6,1.8c-0.5,0.6-1.1,1.2-1.6,1.8l-0.1,0.1c-0.6,0.6-1.1,1.2-1.7,1.8
			c-0.6,0.6-1.2,1.2-1.8,1.8c-0.6,0.6-1.2,1.2-1.8,1.8c-11.9,11.1-26.1,18.1-42.2,20.7c-2.3,0.4-4.6,0.6-7,0.8
			c-6.2,0.5-12.4,0.5-18.6,0.7c-3.9,0.2-7.9,0.1-11.8,0.1c-1.4,0-2.9,0-4.3,0.1c-2.2,0.1-4.2,0.8-6,2.1c1.8-1.3,4-2.2,6.2-2.2
			c1.4,0,2.7-0.1,4.1-0.1c4,0,8,0.1,12-0.1c6.1-0.2,12.3-0.2,18.4-0.7c2.4-0.2,4.7-0.4,7.1-0.8c16-2.6,30.2-9.6,42.1-20.6
			c0.5-0.4,0.9-0.9,1.4-1.3c0.5-0.4,0.9-0.9,1.4-1.3s0.9-0.9,1.3-1.3c0.4-0.4,0.9-0.9,1.3-1.3c1-1.1,2-2.2,2.9-3.3
			c0.8-1,1.6-1.9,2.3-2.9c0,0,0,0,0,0c0.1-0.1,0.2-0.2,0.3-0.4C254.3,170.6,254.6,170.2,254.8,169.8z"/>
		<path class="st0" d="M256.2,168c0.3-0.5,0.7-0.9,1-1.4c-0.1,0.2-0.2,0.3-0.3,0.5c-0.2,0.2-0.3,0.5-0.5,0.7
			C256.3,167.9,256.3,167.9,256.2,168z"/>
		<path class="st0" d="M258.6,164.3c0.2-0.3,0.4-0.6,0.6-0.9c-0.1,0.1-0.2,0.3-0.2,0.4C258.9,164,258.8,164.2,258.6,164.3z"/>
		<path class="st0" d="M260,162.1c0.1-0.1,0.1-0.2,0.2-0.2c-0.1,0.2-0.3,0.5-0.4,0.7C259.8,162.5,259.9,162.3,260,162.1z"/>
		<path class="st0" d="M270.6,113.5c-0.8-0.2-1.5-0.3-2.3-0.5h1.2c0.3,0.1,0.7,0.2,1,0.2C270.6,113.3,270.6,113.4,270.6,113.5z"/>
	</g>
	<g>
		<path class="st0" d="M152.6,207.9c-2.1,1.8-3.7,4.3-4.2,7c0-0.3,0.1-0.9,0.3-1.5C149.4,211.2,150.8,209.3,152.6,207.9z"/>
		<path class="st0" d="M256.2,168c0.3-0.5,0.7-0.9,1-1.4c-0.1,0.2-0.2,0.3-0.3,0.5c-0.2,0.2-0.3,0.5-0.5,0.7
			C256.3,167.9,256.3,167.9,256.2,168z"/>
		<path class="st0" d="M254.8,169.8c0.5-0.6,0.9-1.2,1.4-1.9c-0.9,1.3-1.8,2.5-2.7,3.7c-0.1,0.1-0.2,0.3-0.3,0.4
			c-0.5,0.6-1,1.3-1.5,1.9c-0.5,0.6-1,1.2-1.6,1.8c-0.5,0.6-1.1,1.2-1.6,1.8l-0.1,0.1c-0.6,0.6-1.1,1.2-1.7,1.8
			c-0.6,0.6-1.2,1.2-1.8,1.8c-0.6,0.6-1.2,1.2-1.8,1.8c-11.9,11.1-26.1,18.1-42.2,20.7c-2.3,0.4-4.6,0.6-7,0.8
			c-6.2,0.5-12.4,0.5-18.6,0.7c-3.9,0.2-7.9,0.1-11.8,0.1c-1.4,0-2.9,0-4.3,0.1c-2.2,0.1-4.2,0.8-6,2.1c1.8-1.3,4-2.2,6.2-2.2
			c1.4,0,2.7-0.1,4.1-0.1c4,0,8,0.1,12-0.1c6.1-0.2,12.3-0.2,18.4-0.7c2.4-0.2,4.7-0.4,7.1-0.8c16-2.6,30.2-9.6,42.1-20.6
			c0.5-0.4,0.9-0.9,1.4-1.3c0.5-0.4,0.9-0.9,1.4-1.3s0.9-0.9,1.3-1.3c0.4-0.4,0.9-0.9,1.3-1.3c1-1.1,2-2.2,2.9-3.3
			c0.8-1,1.6-1.9,2.3-2.9c0,0,0,0,0,0c0.1-0.1,0.2-0.2,0.3-0.4C254.3,170.6,254.6,170.2,254.8,169.8z"/>
		<path class="st0" d="M258.6,164.3c0.2-0.3,0.4-0.6,0.6-0.9c-0.1,0.1-0.2,0.3-0.2,0.4C258.9,164,258.8,164.2,258.6,164.3z"/>
		<path class="st0" d="M260,162.1c0.1-0.1,0.1-0.2,0.2-0.2c-0.1,0.2-0.3,0.5-0.4,0.7C259.8,162.5,259.9,162.3,260,162.1z"/>
		<path class="st0" d="M270.6,113.6c0,0,0-0.1,0-0.1h0C270.6,113.6,270.6,113.6,270.6,113.6z"/>
	</g>
</g>
<g>
	<path d="M269.6,136.2c-0.2,1.3-0.5,2.7-0.8,4c0,0.1,0,0.2-0.1,0.2c-0.3,1.4-0.7,2.8-1.1,4.1c0,0,0,0,0,0.1c-0.4,1.3-0.8,2.7-1.3,4
		c-0.1,0.4-0.3,0.7-0.4,1.1c-0.7,1.8-1.4,3.6-2.2,5.4c-0.2,0.4-0.4,0.8-0.6,1.3s-0.4,0.8-0.6,1.2c-0.2,0.4-0.4,0.8-0.6,1.2
		c-0.5,0.9-1,1.9-1.5,2.8c0,0.1-0.1,0.1-0.1,0.2c0,0,0,0,0,0c0,0.1-0.1,0.2-0.2,0.2c-0.1,0.2-0.2,0.3-0.3,0.5
		c-0.1,0.2-0.3,0.5-0.4,0.7c0,0-0.1,0.1-0.1,0.1c-0.2,0.3-0.4,0.6-0.6,0.9c-0.1,0.1-0.2,0.2-0.2,0.4c-0.1,0.2-0.2,0.3-0.3,0.5
		c-0.2,0.4-0.5,0.8-0.8,1.2c0,0.1-0.1,0.1-0.1,0.2c-0.1,0.2-0.2,0.3-0.3,0.5c-0.2,0.2-0.3,0.5-0.5,0.7c-0.5,0.7-1,1.4-1.5,2.1
		c-0.3,0.4-0.6,0.8-0.9,1.2c-0.1,0.1-0.2,0.2-0.3,0.4c0,0,0,0,0,0c-0.8,1-1.5,1.9-2.3,2.9c-0.9,1.1-1.9,2.2-2.9,3.3
		c-0.4,0.5-0.8,0.9-1.3,1.3c-0.4,0.5-0.9,0.9-1.3,1.3s-0.9,0.9-1.4,1.3c-0.5,0.4-0.9,0.9-1.4,1.3c-11.9,11-26.1,18-42.1,20.6
		c-2.4,0.4-4.7,0.6-7.1,0.8c-6.1,0.5-12.3,0.5-18.4,0.7c-4,0.2-8,0.1-12,0.1c-1.4,0-2.7,0-4.1,0.1c-2.2,0.1-4.4,0.9-6.2,2.2
		c-0.1,0.1-0.2,0.1-0.3,0.2c-0.1,0.1-0.2,0.2-0.3,0.2c-1.8,1.4-3.2,3.3-3.9,5.4c0.4-2.4,1.1-6.6,1.7-9.9c4-23.7,8-47.5,12-71.2
		c0.5-3,1-6.1,1.6-9.1c0.9-5,3.7-8.2,8.5-9.6c0.3-0.1,0.5-0.3,0.8-0.5h95c0.8,0.2,1.5,0.3,2.3,0.5c0,0,0,0.1,0,0.1c0,0,0,0.1,0,0.1
		c0.1,1.3,0.2,2.7,0.3,4C271.1,124.2,270.6,130.3,269.6,136.2z"/>
	<path d="M152.6,207.9c-2.1,1.8-3.7,4.3-4.2,7c0-0.3,0.1-0.9,0.3-1.5C149.4,211.2,150.8,209.3,152.6,207.9z"/>
	<path d="M251.3,174.3c0.8-1,1.6-1.9,2.3-2.9c-0.4,0.5-0.8,1-1.2,1.5C252.1,173.3,251.7,173.8,251.3,174.3z"/>
	<path d="M258.6,164.3c0.2-0.3,0.4-0.6,0.6-0.9c-0.1,0.1-0.2,0.3-0.2,0.4C258.9,164,258.8,164.2,258.6,164.3z"/>
	<path d="M270.6,113.6c0,0,0-0.1,0-0.1c-0.8-0.2-1.5-0.3-2.3-0.5h1.2c0.3,0.1,0.7,0.2,1,0.2h0c0,0.1,0,0.2,0,0.3
		C270.6,113.6,270.6,113.6,270.6,113.6z"/>
</g>
</svg>
