<?xml version="1.0" encoding="utf-8"?>
<!-- Generator: Adobe Illustrator 24.3.0, SVG Export Plug-In . SVG Version: 6.00 Build 0)  -->
<svg version="1.1" id="Слой_1" xmlns="http://www.w3.org/2000/svg" xmlns:xlink="http://www.w3.org/1999/xlink" x="0px" y="0px"
	 viewBox="0 0 400 400" fill="white" style="enable-background:new 0 0 400 400;" xml:space="preserve">
<g>
	<path d="M270.6,113.5c0-0.1,0-0.2,0-0.3h0c-0.4-0.1-0.7-0.2-1-0.2h-1.2C269.1,113.2,269.8,113.4,270.6,113.5c0,0,0,0.1,0,0.1
		C270.6,113.6,270.6,113.6,270.6,113.5z"/>
	<path d="M301,193c-6.7,3.4-13.8,6.3-21.1,8c-26.9,6.2-54.3,7.3-81.7,7.3c-22.3,0-44.7-0.9-66.6-5c-10-1.9-19.6-5.3-29.4-8.1
		c-1-0.3-2-1-2.9-1.6c-5.1-3.6-5.1-7.5,0.1-10.9c7.5-4.9,16-7,24.6-8.3c17.2-2.7,34.5-4.6,52.5-7v32.8h47.2v-31.9
		c9.8,0.8,19.3,1,28.6,2.4c12.8,1.9,25.4,4.6,38,7.4c3.8,0.8,7.4,2.9,10.8,5C305.7,186.2,306,190.5,301,193z"/>
	<path d="M319.8,0H80.2C35.9,0,0,35.9,0,80.2v239.6C0,364.1,35.9,400,80.2,400h239.6c44.3,0,80.2-35.9,80.2-80.2V80.2
		C400,35.9,364.1,0,319.8,0z M312.5,196.2c-4.3,3.2-9.2,5.9-14.3,7.8c-15.8,5.8-32.3,8.1-48.9,9.9c-8.4,0.9-16.9,1.4-25.6,2.1v90.4
		h-47V216c-6.2-0.5-12.1-0.8-17.9-1.3c-20.7-1.9-41.4-4.3-60.9-12.1c-3.4-1.4-6.8-3.3-9.7-5.5c-5.4-4.2-5.4-9.7,0.2-13.6
		c4.2-2.8,8.8-5.2,13.6-6.9c13.8-5.1,28.1-7.4,42.6-9c9.5-1.1,19.1-1.6,28.7-2.4c1-0.1,1.9-0.3,3.1-0.5v-27.7h-64.5V93.5h176.3v43.2
		h-64.3v28c1.8,0.2,3.7,0.3,5.5,0.5c24,1.6,47.9,3.8,70.8,12.2c4.5,1.6,8.8,4.2,12.5,7.1C317.1,188.1,317.1,192.8,312.5,196.2z"/>
</g>
</svg>
