<?xml version="1.0" encoding="utf-8"?>
<!-- Generator: Adobe Illustrator 24.3.0, SVG Export Plug-In . SVG Version: 6.00 Build 0)  -->
<svg version="1.1" id="Слой_1" xmlns="http://www.w3.org/2000/svg" xmlns:xlink="http://www.w3.org/1999/xlink" x="0px" y="0px"
	 viewBox="0 0 706.8 289" style="enable-background:new 0 0 706.8 289;" xml:space="preserve">
<style type="text/css">
	.st0{fill:#FFFFFF;}
	.st1{font-family:'HelveticaNeue-Bold';}
	.st2{font-size:70px;}
	.st3{letter-spacing:1;}
</style>
<g>
	<g id="hp4ieC_1_">
		<g>
			<path class="st0" d="M450.3,127.5c-5.8,0.4-11.1,1.9-15.5,5.9c9-5,18.4-6,29-3.2c-3.3,1.8-6,4-9.1,5c-4.2,1.4-8.6,2.2-13,2.8
				c-3.4,0.5-6.9,0.7-10.3,0.4c-3.5-0.3-5.3,1.5-7,4.4c7-0.1,13.7,0.7,19.6,4.7c-5.6,0.5-10.7,2.3-15.5,5c8.3-0.4,16.3-3.7,24.8-2.3
				c-9.3,15.5-30.3,20.5-44.6,5.2c-16,12-34.1,18-54.1,18c-20.1,0-38-6.6-54.3-18.3c-7.3,8-16.2,11.3-26.9,8.8
				c-7-1.6-15.4-8.3-17.7-13.8c8.4-1.5,16.4,2.2,24.8,2c-2.5-1-4.9-2-7.5-2.8c-2.6-0.8-5.3-1.3-8.2-2.5c3.2-1.1,6.3-2.4,9.5-3.2
				c3.3-0.7,6.6-0.8,10-1.1c-1.3-2.8-3.3-4.2-6.8-4.2c-5.9,0-11.9-0.5-17.8-1.3c-5.4-0.7-10-3.5-14.6-7.1c9.8-2.4,18.9-1.9,27.7,2.8
				c-4.3-3.6-9.3-5.1-14.8-5.4c0-0.3,0.1-0.5,0.1-0.8c5.5,0,11,0,16.6,0c-0.4-1.7-1.6-2.5-3.5-2.8c-6.9-1.1-13.8-2.2-20.5-3.8
				c-3-0.7-5.6-2.8-8.4-4.1c-3.4-1.6-6.8-3-10.2-4.5c5.2-3.2,11.1-3.9,17.3-2.5c6.2,1.3,11.5,4.4,16.7,8.3
				c-2.4-5.1-10.9-9.3-21.4-11c4.5-2.3,10.6-1.8,22.8,1.7c-1.5-1.5-2.8-3.3-4.5-4.5c-2.4-1.7-5-3.4-7.7-4.5
				c-10.6-4.2-17.1-12.1-20.9-22.6c-0.4-1.2-0.9-2.5-1.4-3.7c8-0.5,21,3.7,31.2,22.2c-1-4.1-2.7-8-5.6-11c-2.8-3-6.1-5.5-8.7-7.8
				c2.7,0.5,7.1,2.8,14.1,7.6c-0.5-1-0.9-2.1-1.7-2.9c-2.8-2.7-5.6-5.5-8.7-7.8c-5.4-3.8-8.3-8.9-9.7-15.6c4.5,1.3,7.9,3.8,10.6,7
				c2.7,3.2,5.1,6.6,7.7,9.9c0.2-0.1,0.4-0.3,0.6-0.4c-1.8-3.9-3.5-7.8-5.5-11.6c-3.4-6.4-7.2-12.5-8.9-19.7c-2-8.5-1-16.8,2.3-25.6
				c3.2,6,6.6,11.3,8.9,16.9c2.4,5.7,3.7,11.7,5.6,17.9c0.4-3.2,0.8-6.2,1.2-9.3c1.2-9.4,4.7-17.5,13.2-22.4
				c3.1-1.8,6.7-2.9,10.6-4.5c-4.3,10.3-7.7,20-15.3,27.6c-3.2,3.2-4,7.7-4.7,12.1c-0.6,3.6-0.9,7.3-1.3,10.8
				C284.8,28,312,4.7,354.3,4.5c42.6-0.1,69.4,23.7,85.3,61.9c-1-5.7-1.7-11.4-3.1-17c-0.6-2.5-2.2-4.9-4-6.8
				c-4.6-5.1-8.1-10.7-10.6-17.1c-1.2-3-2.5-5.9-3.9-9.2c4.5,1,8.5,2.4,12.1,5c7,5.2,10.5,12.3,11.5,20.8c0.4,3.2,0.8,6.3,1.6,9.6
				c1.9-12.6,7.3-23.5,14.9-34c0.8,3.5,1.8,7.1,2.3,10.6c1.6,10.6-1.7,20.1-6.8,29.2c-2.9,5.1-5.4,10.5-8.1,15.8
				c0.3,0.1,0.5,0.3,0.8,0.4c2.5-3.3,4.8-6.7,7.4-9.8c2.7-3.3,6.2-5.4,10.6-6.9c-1.5,5.5-3.5,10.2-7.9,13.8c-3.6,3-7.1,6.2-10.5,9.4
				c-0.9,0.8-1.2,2.1-1.6,3.3c7.9-5.8,11.3-7.7,15.4-8c-7.7,4.2-13.1,10-15.2,18.5c6.8-12.1,15.9-20.7,30.8-21.8
				c-3.3,9.5-7,18.5-16.5,23.4c-3,1.6-6.1,2.9-9.1,4.3c-3.8,1.9-6.8,4.7-9.4,8.8c7.8-4.1,15.5-5.3,23.5-2.7
				c-8.7,0.6-15.9,4.2-21.9,10.2c0.1,0.2,0.2,0.4,0.3,0.6c0.9-0.5,1.8-1,2.6-1.6c6.5-4.5,13.4-7.5,21.5-7c3.6,0.2,7,1.1,9.8,3
				c-3.2,1.4-6.7,2.3-9.5,4.2c-7.1,4.6-15,6.6-23.3,7.4c-2.1,0.2-4.2,0.7-6.3,1c-1.9,0.2-3,1.2-3.4,2.8c5.4,0,10.9,0,16.4,0
				C450.2,127,450.2,127.2,450.3,127.5z M354.4,124.6c0,0,0-0.1,0-0.1c4.9,0,9.9-0.4,14.8,0.1c5,0.5,8.7-1.4,11.8-4.8
				c2.7-2.9,5.4-5.8,7.4-9.1c5.3-8.8,5.8-18.7,4.3-28.5c-4.2-26.8-34.7-42.6-59.1-26.6c-13.4,8.7-18.8,21.6-17.9,37.5
				c0.7,13,6.4,23.1,16.9,30.5c0.8,0.6,2,1,3,1C341.8,124.7,348.1,124.6,354.4,124.6z M399.6,154.2c0-0.2,0-0.4,0-0.7
				c-1.2-0.1-2.4-0.2-3.6-0.3c-9.5-0.4-19-0.7-28.5-1.2c-2.5-0.1-3.7-1.3-3.6-3.4c0-2,1.4-3.3,3.7-3.4c5.5-0.3,11-0.6,16.5-1
				c8.5-0.5,17.1-1,25.6-1.5c0-0.2,0-0.5,0-0.7c-5.4,0-10.8,0.1-16.2,0c-8.6-0.3-17.3-0.7-25.9-1.1c-2.1-0.1-3.5-0.9-3.7-3.1
				c-0.2-2.3,1.3-3.8,4.2-3.9c16.2-0.8,32.5-1.6,48.7-2.5c1.5-0.1,3.1-0.3,4.6-0.5c-44.8-1.9-89.6-1.8-134.4-0.1
				c8.8,0.7,17.5,1.1,26.3,1.6c9.2,0.5,18.3,1,27.5,1.5c2.8,0.2,4.3,1.6,4.2,3.8c-0.1,2.2-1.3,3.1-4.3,3.3
				c-7.3,0.3-14.6,0.6-21.9,0.9c-6.7,0.2-13.3,0.4-20,0.6c6.3,0.6,12.5,0.9,18.8,1.3c7.9,0.5,15.8,0.9,23.7,1.4
				c2.1,0.1,3.6,1.6,3.6,3.4c0,2.1-1.2,3.1-3.2,3.4c-0.5,0.1-0.9,0.1-1.4,0.1c-9.7,0.4-19.3,0.7-29,1.1c-0.6,0-1.2,0.1-1.8,0.2
				c0.4,0.5,0.9,0.7,1.3,0.7c9.9,0.8,19.9,1.6,29.8,2.4c2.8,0.2,4.4,1.2,4.3,3c-0.1,1.8-1.8,3-4.3,3.1c-0.4,0-0.8,0-1.2,0
				c-1.7,0.1-3.4,0.3-5.2,0.3c-1.7,0.1-3.4,0-5.1,0c17.3,6.1,34.6,6.1,52.5,0.3c-5-0.2-9.5-0.4-14-0.6c-2.5-0.1-3.7-1.1-3.8-3
				c0-1.9,1-2.9,3.6-3.1c3.1-0.2,6.1-0.3,9.2-0.5C384.3,155.4,392,154.8,399.6,154.2z M425.6,57.7c-0.3,0-0.6,0-1,0
				c-1.2,4.4-2.4,8.8-3.6,13.3c-0.5,1.8-0.4,3.4,2,3.7c0.4,0.1,0.8,0.6,1.4,1c-0.7,0.1-1,0.1-1.3,0.3c-0.9,0.4-2.5,0.6-2.6,1.1
				c-0.2,1.1,0,2.8,0.7,3.3c0.9,0.7,2.6,0.7,3.8,0.4c1-0.3,1.9-1.3,2.6-2.2c1-1.3,1.9-2.8,2.9-4.4c-0.2,5.1-3.4,8.2-8,8.4
				c-0.7,0-2,0.7-2,1.3c-0.1,0.8,0.5,1.8,1.1,2.4c0.5,0.5,1.4,0.6,2.1,1c0.4,0.2,0.5,0.8,0.8,1.2c-0.5,0.2-0.9,0.5-1.4,0.4
				c-0.9,0-1.7-0.3-2.6-0.4c0,1.7,0,3,0,4.3c1.2,0.3,2.3,0.4,3.3,0.8c0.3,0.1,0.5,0.7,0.7,1c-0.4,0.2-0.7,0.6-1.1,0.6
				c-0.9,0-1.8-0.2-2.6-0.4c-0.8,3.6-0.8,3.6,2.4,4.6c0.8,0.3,1.5,0.9,2.2,1.4c-0.1,0.2-0.2,0.3-0.3,0.5c-1.4-0.1-2.8-0.2-4.2-0.3
				c-0.4,2.1,0,3.7,1.9,4c2.6,0.4,2.9,2,2.8,4.1c-0.1,4.4,0,8.8,0,13.5c2.4-1.9,2.6-2.1,2.6-4.7c0.1-4,0-8,0.1-12
				c0-1,0.4-2.3,1.1-2.8c5-4.1,4.3-9.6,4-15.5c-2,2.2-3.8,4.1-5.5,5.9c-0.2-0.2-0.5-0.4-0.7-0.6c1.6-2.1,3.3-4.1,4.9-6.2
				c-0.3-0.4-0.6-1-1-1.6c2.2-0.3,2.4-1.7,2.1-3.3c-0.8-4.3-1.7-8.6-2.7-12.9c-0.2-0.9-0.7-1.6-1-2.5c-0.2,0-0.5-0.1-0.7-0.1
				c-0.8,1.6-1.7,3.3-2.5,4.9c0-1.7,0.1-3.8,1.2-4.8c1.6-1.5,1.3-2.7,0.5-4.2C427.3,60.7,426.5,59.2,425.6,57.7z M275,87.5
				c-0.6,6.1-1,11.6,4.1,15.7c0.8,0.7,1.2,2.2,1.3,3.3c0.2,3.5,0.2,7.1,0.1,10.6c-0.1,2.1,0.4,3.9,2.4,5.2c0.1-0.9,0.2-1.6,0.2-2.4
				c0-4.1,0.1-8.2,0-12.2c0-1.3,0.1-2,1.6-2.3c2.1-0.5,3.4-1.9,2.9-4.5c-1.5,0-3,0-4.6,0c0.5-0.8,1.1-1.4,1.8-1.5
				c3.5-0.8,3.5-0.8,2.9-4.7c-1.3,0.1-2.7,0.2-4,0.3c-0.1-0.2-0.2-0.4-0.3-0.6c0.5-0.4,1-0.9,1.6-1c3.4-0.9,3.7-1.4,2.5-5.1
				c-1.2,0.1-2.4,0.2-3.7,0.3c-0.1-0.3-0.2-0.5-0.3-0.8c0.9-0.5,1.7-1.1,2.7-1.5c1.2-0.5,2-1.1,1.8-2.6c-0.3-1.8-1.7-1.3-2.8-1.3
				c-0.8,0-1.6,0.3-2.3,0.1c-2.3-0.7-5.2-5.3-5.2-8.1c1.4,1.7,2.8,3.5,4.2,5.2c1.4,1.6,3.3,2,4.8,0.8c0.9-0.7,1.1-2.5,1.6-4
				c-1.9-0.4-3.1-0.6-4.3-0.8c0-0.2,0-0.4,0-0.5c1-0.5,2.1-0.9,3.2-1.4c-0.1-5.8-1.7-11.1-4.5-16.5c-1.1,2.1-2,3.9-2.9,5.7
				c-0.5,1.1-0.6,1.9,0.5,2.8c1.5,1.3,2.2,3.1,1.7,5.1c-0.9-1.5-1.7-3-2.6-4.6c-0.2,0.1-0.5,0.1-0.7,0.2c-2,4.9-3,10-3.6,15.2
				c-0.1,1.1,0.7,2.4,1,3.6c0.3,0,0.5,0,0.8,0c-0.4,0.3-0.9,0.6-1.4,1c2.1,2.3,4.5,4.2,4.7,7.5C278.8,91.7,277,89.8,275,87.5z
				 M409.7,89.3c-0.8,0.2-1.6,0.5-2.4,0.6c-2.1,0.3-1.7,1.9-1.4,3c0.1,0.6,1.4,1.2,2.2,1.2c0.9,0,1.9-0.6,2.7-1.2
				c2.6-2.2,2.6-2.2,5.4-1.2c0.6-4,0.3-5.5-1.6-6.8c-0.6-0.4-1.6-0.4-2.6-0.6c0.1-0.5,0.2-1.4,0.3-2.6c1.5,0.8,2.6,1.4,4,2.2
				c0.5-6.1-0.5-11.7-3-17.2c-2.1,3.5-3.9,6.9-5.5,10.5c-1,2.2-1.7,4.4,1.2,5.9c0.1,0,0,0.4,0.1,0.8c-0.9-0.2-1.6-0.3-2.3-0.4
				C405.1,87.2,405.6,88,409.7,89.3z M298.1,89.5c1.8-1.2,4.4-0.5,4.5-3.5c0-2.6-1.8-2.3-3.3-2.7c0.9-1.1,2.5-2.2,2.3-3
				c-0.8-5.1-3.4-9.4-6.9-13.9c-1.5,6-2.8,11.4-2.3,17.3c1.2-0.7,2.1-1.2,3.1-1.9c0.4,1.1,0.7,2,1,2.9c-3.2-1.1-4.7,1.8-3.8,6.8
				c2-1.3,3.5-0.5,4.9,1.2c0.4,0.5,1,1.2,1.6,1.4c0.9,0.2,2.2,0.4,2.7-0.1c0.6-0.6,0.8-1.9,0.8-2.9c0-0.4-1.2-0.8-1.9-1.1
				C299.9,89.7,299.1,89.7,298.1,89.5z M306.5,99.3c-2.3,3.5,2,4.9,2.3,7.9c-1-0.9-1.7-1.5-2.5-2.2c-1.2,3.2,1.3,4.6,2.1,6.9
				c-0.8-0.6-1.5-1.2-2.6-1.9c0.2,0.7,0.1,1.3,0.4,1.6c2.6,2.3,2.3,5.3,2.2,8.2c0,1.4-0.1,2.8,0.1,4.2c0.1,0.5,0.6,1,1,1.5
				c0.2-0.1,0.5-0.2,0.7-0.3c0-2.9,0.1-5.8,0-8.6c-0.1-1.7,0.3-3,2-3.8c1.4-0.7,2.2-2,1.3-3.8c-0.8,0.1-1.5,0.2-2.3,0.2
				c2.7-2.7,2.7-2.7,2.5-4.1c-0.8-0.2-1.6-0.3-2.7-0.6c3-2.1,3-2.1,0.8-3.9c2.2-2.6,2.2-2.6-0.1-3.7c1.9-2.9,0-9.9-3.9-12.8
				c-0.2,2.4-0.3,4.5-0.4,6.5c-1.4,1.3-1,3.4-0.8,5.1c0.2,1.8,1.1,3.5,1.9,5.6C307.5,100.5,307,99.9,306.5,99.3z M398.4,125.1
				c0.3,0.1,0.7,0.3,1,0.4c0.3-0.6,0.7-1.2,0.7-1.8c0.1-2.3-0.1-4.6,0.1-6.8c0.1-1.4,0.9-2.7,1.3-4c0.4-1,0.7-2,1.1-2.9
				c-0.3-0.2-0.5-0.3-0.8-0.5c-0.5,0.9-1.1,1.7-1.6,2.6c-0.2-2.7,3.8-3.8,1.8-7.1c-0.7,0.6-1.3,1.1-1.9,1.7c0.2-1,0.4-2.1,1.1-2.5
				c2.2-1.2,1.2-2.8,1-4.6c-0.8,0.5-1.4,0.8-2.1,1.2c3.5-3.3,2.1-6.7,1-10.1c-0.3-2.2-0.5-4.2-0.8-6.8c-4,5.3-5,10.6-3,13.2
				c-4.6,0.9-0.4,2.9-0.4,4.4c-0.8,0-1.4,0.1-2.1,0.1c-0.1,0.2-0.3,0.4-0.4,0.6c1,1,2.1,1.9,2.9,2.7c-1,0.3-1.9,0.6-2.9,0.9
				c0.7,0.8,1.4,1.6,2.1,2.4c0.4,0.4,0.7,0.8,0.8,1c-0.9,0.2-1.8,0.3-2.6,0.5c0.2,0.8,0.4,1.7,0.8,2.4c0.1,0.2,0.5,0.4,0.8,0.5
				c1.6,0.6,2,1.7,1.9,3.3C398.4,119,398.4,122.1,398.4,125.1z M352.8,15.6c3.4,2,5.2,4.6,4.7,8.1c-0.4,3.5-2.7,5.8-6,6.8
				c-3.8,1.2-6.6-0.5-8.8-3.9c1.6,6.9,6.3,10.4,12.4,9.7c4.8-0.6,8.7-5.3,8.6-10.2C363.6,20.6,359,16,352.8,15.6z M405.9,106.3
				c-0.7,2.2,1.1,3.2,3,3.8c1.6,0.5,2.2,1.4,2.1,3.1c-0.1,3.8,0,7.7,0,11.5c0,0.2,0.1,0.4,0.2,0.7c0.7,0,1.3,0,2.1,0
				c0-4.4,0-8.6,0-12.8c0-0.9,0.1-2,0.7-2.6c2.9-2.8,2.8-6.2,2.2-9.9c-1.7,1.3-3.1,2.7-4.8,3.7C409.9,104.7,408.1,105.3,405.9,106.3
				z M295.4,125.4c1.6,0.4,2.3,0,2.3-1.5c-0.1-3,0.1-6,0-9c-0.1-2.6,0.1-4.8,3.3-5.5c0.4-0.1,0.8-0.3,1-0.6c0.3-0.8,0.6-1.6,0.6-2.4
				c0-0.4-1-0.7-1.6-0.9c-1.7-0.8-3.5-1.6-5.2-2.5c-1.1-0.6-2.1-1.6-3.2-2.5c-0.9,4-0.4,5.7,1.4,8.7c0.8,1.4,1.4,3.1,1.5,4.7
				C295.6,117.8,295.4,121.6,295.4,125.4z M405.7,100.6c0.1,1.2-0.1,2.6,0.5,3.3c0.4,0.5,2.2,0.4,3-0.1c2.2-1.6,4.3-3.3,6.3-5.2
				c1.5-1.5,1.2-4.4-0.6-5.6c-0.6-0.4-2-0.4-2.4,0c-1.8,1.9-3.9,3.1-6.5,2.7c-1.1,3.1,1.7,2.9,3.3,4.2
				C408,100.2,407.1,100.4,405.7,100.6z M302.5,95.4c-2.8,0.8-4.7-0.5-6.6-2.4c-0.9-0.9-2.6-0.9-3,0.4c-0.5,1.5-0.8,3.8,0,4.7
				c2.1,2.4,4.8,4.4,7.5,6.3c1.1,0.8,2.3-0.1,2.3-1.6c0-0.8-0.2-1.5-0.2-2.2c-1.1-0.3-2.1-0.6-3.1-0.9
				C301.3,98.8,303.5,98.7,302.5,95.4z M255.3,32.5c1.2,9.4,3,18.6,7.3,27.1C261.5,50.2,258.4,41.3,255.3,32.5z M446,59.6
				c3.1-5.9,7.3-22.6,6.6-26.4C449.7,42.2,446.9,50.7,446,59.6z M315.8,33c0.3,5-2.8,6-6.7,6.3c4.4-0.2,6.7,1.6,6.9,6.2
				c-0.1-4.6,2.8-5.8,6.5-6.4C318.1,39.3,316.3,37.2,315.8,33z M299.4,48.8c-0.1,0.4-0.2,0.9-0.2,1.3c0,2.6-1.2,3.8-3.9,3.7
				c-0.6,0-1.2,0.3-1.7,0.5c3.7,0.3,6.3,1.5,6.2,6.2c0.2-4.7,3.1-5.6,6.6-5.8c0,0,0.1-0.2,0.2-0.6C302.5,54.5,300.2,52.7,299.4,48.8
				z M405.1,54.3c3.5,0.3,6.5,1,6.3,5.7c0.5-3.7,2.3-5.6,6.1-5.6c-4.2,0.4-5.3-2.3-6.2-5.7C411.7,53.6,408.4,53.8,405.1,54.3z
				 M391.3,40.4c1,2.5-1.7,1.9-3,3.1c2.8-0.7,2.9,1.3,3.4,3.1c0.6-1.8,1-3.6,2.8-3.3C393.6,42.5,392.5,41.4,391.3,40.4z"/>
		</g>
	</g>
	<text transform="matrix(1 0 0 1 46.2048 245.9266)"><tspan x="0" y="0" class="st0 st1 st2">EXPLORE</tspan><tspan x="330.6" y="0" class="st0 st1 st2 st3"> </tspan><tspan x="351.5" y="0" class="st0 st1 st2">WORLD</tspan></text>
</g>
</svg>
